# xmcd
#
# Track frame offsets:
#	150
#	18564
#	35635
#	52554
#	73689
#	88492
#	106727
#	125126
#	150215
#	162762
#	177782
#	194385
#	230102
#	243254
#	261817
#	280033
#
# Disc length: 4044 seconds
#
# Revision: 0
# Processed by: cddbd v1.5.2PL0 Copyright (c) Steve Scherf et al.
# Submitted via: audiograbber 1.83.01
#
DISCID=d20fca10
DTITLE=Drivetime Rock Classics - Keep Your Motor Running
DYEAR=2005
DGENRE=Country
TTITLE0=Maria
TTITLE1=Livin' On A Prayer
TTITLE2=Believe
TTITLE3=Space Oddity
TTITLE4=Lay Lady Lay
TTITLE5=Atomic
TTITLE6=If I Could Turn Back Time
TTITLE7=Keep The Faith
TTITLE8=Presence Dear
TTITLE9=I Shall Be Released
TTITLE10=Life On Mars
TTITLE11=Stairway To Heaven
TTITLE12=Sunday Girl
TTITLE13=Love Hurts
TTITLE14=Let's Dance
TTITLE15=In These Arms
EXTD=
EXTT0=
EXTT1=
EXTT2=
EXTT3=
EXTT4=
EXTT5=
EXTT6=
EXTT7=
EXTT8=
EXTT9=
EXTT10=
EXTT11=
EXTT12=
EXTT13=
EXTT14=
EXTT15=
PLAYORDER=
